<?xml version="1.0" encoding="UTF-8" standalone="no"?>
<!-- Created with Inkscape (http://www.inkscape.org/) -->

<svg
   width="297mm"
   height="210mm"
   viewBox="0 0 297 210"
   version="1.1"
   id="svg1"
   xml:space="preserve"
   inkscape:version="1.3.2 (091e20e, 2023-11-25, custom)"
   sodipodi:docname="convein_certificate_template.svg"
   inkscape:export-filename="covenant_certificate_template.pdf"
   inkscape:export-xdpi="96"
   inkscape:export-ydpi="96"
   xmlns:inkscape="http://www.inkscape.org/namespaces/inkscape"
   xmlns:sodipodi="http://sodipodi.sourceforge.net/DTD/sodipodi-0.dtd"
   xmlns="http://www.w3.org/2000/svg"
   xmlns:svg="http://www.w3.org/2000/svg"><sodipodi:namedview
     id="namedview1"
     pagecolor="#505050"
     bordercolor="#eeeeee"
     borderopacity="1"
     inkscape:showpageshadow="0"
     inkscape:pageopacity="0"
     inkscape:pagecheckerboard="0"
     inkscape:deskcolor="#505050"
     inkscape:document-units="mm"
     inkscape:zoom="0.92654278"
     inkscape:cx="602.77843"
     inkscape:cy="610.87304"
     inkscape:window-width="1680"
     inkscape:window-height="979"
     inkscape:window-x="-8"
     inkscape:window-y="-8"
     inkscape:window-maximized="1"
     inkscape:current-layer="layer1" /><defs
     id="defs1"><rect
       x="373.43121"
       y="56.122612"
       width="539.6405"
       height="69.073982"
       id="rect8" /><rect
       x="393.79413"
       y="621.98102"
       width="625.10266"
       height="153.71266"
       id="rect7" /><rect
       x="535.32336"
       y="586.04956"
       width="244.99678"
       height="34.536991"
       id="rect5" /><rect
       x="212.1604"
       y="584.58588"
       width="283.8981"
       height="100.73803"
       id="rect3" /><inkscape:path-effect
       effect="mirror_symmetry"
       start_point="36.1,119.94727"
       end_point="36.1,125.86"
       center_point="36.1,122.90364"
       id="path-effect12"
       is_visible="true"
       lpeversion="1.2"
       lpesatellites=""
       mode="free"
       discard_orig_path="false"
       fuse_paths="true"
       oposite_fuse="false"
       split_items="false"
       split_open="false"
       link_styles="false" /></defs><g
     inkscape:label="Layer 1"
     inkscape:groupmode="layer"
     id="layer1"><rect
       style="fill:#ffffff;fill-opacity:1;stroke:none;stroke-width:2;stroke-linecap:round;stroke-linejoin:round;stroke-dashoffset:1.88976;paint-order:markers fill stroke"
       id="rect1"
       width="297"
       height="210"
       x="0"
       y="0"
       rx="0"
       ry="0" /><rect
       style="fill:#000000;fill-opacity:1;stroke:none;stroke-width:1.98479;stroke-linecap:round;stroke-linejoin:round;stroke-dashoffset:1.88976;stroke-opacity:1;paint-order:markers fill stroke"
       id="rect2"
       width="297"
       height="52.501427"
       x="0"
       y="157.49857" /><text
       xml:space="preserve"
       transform="matrix(0.26458333,0,0,0.26458333,-49.884578,4.3735336)"
       id="text2"
       style="font-style:normal;font-variant:normal;font-weight:normal;font-stretch:normal;font-size:29.3333px;font-family:Quicksand;-inkscape-font-specification:'Quicksand, @wght=500';font-variant-ligatures:normal;font-variant-caps:normal;font-variant-numeric:normal;font-variant-east-asian:normal;font-variation-settings:'wght' 500;white-space:pre;shape-inside:url(#rect3);display:inline;fill:#ffffff;fill-opacity:1;stroke:none;stroke-width:7.55906;stroke-linecap:round;stroke-linejoin:round;stroke-dashoffset:1.88976;stroke-opacity:1;paint-order:markers fill stroke"><tspan
         x="212.16016"
         y="611.71924"
         id="tspan1">Empresa:</tspan></text><text
       xml:space="preserve"
       transform="matrix(0.26458333,0,0,0.26458333,-49.572124,4.9643925)"
       id="text1"
       style="font-style:normal;font-variant:normal;font-weight:normal;font-stretch:normal;font-size:29.3333px;font-family:Quicksand;-inkscape-font-specification:'Quicksand, @wght=600';font-variant-ligatures:normal;font-variant-caps:normal;font-variant-numeric:normal;font-variant-east-asian:normal;font-variation-settings:'wght' 600;white-space:pre;shape-inside:url(#rect5);display:inline;fill:#ffffff;stroke-width:7.55906;stroke-linecap:round;stroke-linejoin:round;stroke-dashoffset:1.88976;paint-order:markers fill stroke"><tspan
         x="535.32422"
         y="613.18213"
         id="tspan2">Mediciones:</tspan></text><path
       style="font-variation-settings:'wght' 600;fill:none;stroke:#ffffff;stroke-width:1;stroke-linecap:round;stroke-linejoin:round;stroke-dasharray:none;stroke-dashoffset:1.88976;stroke-opacity:1;paint-order:markers fill stroke"
       d="m 87.070932,165.42028 v 39.6928"
       id="path5" /><path
       id="rect6"
       style="font-variation-settings:'wght' 600;fill:#000000;fill-opacity:1;stroke-linecap:round;stroke-linejoin:round;stroke-dashoffset:1.88976;paint-order:markers fill stroke"
       d="M 0,0 H 51.793307 L 41.091481,19.384439 H 0 Z"
       sodipodi:nodetypes="ccccc" /><g
       id="g6"
       transform="matrix(0.33804459,0,0,0.33804459,0.19427532,-50.353112)"><g
         inkscape:label="Layer 1"
         id="layer1-3"
         transform="matrix(0.43492243,0,0,0.43492243,14.878226,122.45041)"><path
           id="path9"
           style="opacity:1;fill:#ffffff;fill-opacity:1;stroke:none;stroke-width:1.1836;stroke-linecap:round;stroke-linejoin:round;stroke-dasharray:none;paint-order:markers fill stroke"
           d="m 36.622054,83.87395 -18.71307,19.56625 -0.0217,0.0393 a 24.773436,24.773436 0 0 0 -5.146456,9.35085 l -0.0015,0.003 h 10e-4 a 24.773436,24.773436 0 0 0 -1.000973,6.9665 24.773436,24.773436 0 0 0 24.773682,24.77316 24.773436,24.773436 0 0 0 24.773165,-24.77316 24.773436,24.773436 0 0 0 -1.00459,-6.9665 h 0.0052 l -0.0093,-0.0155 a 24.773436,24.773436 0 0 0 -6.29419,-10.57971 l -0.0031,-0.006 z m -0.168465,11.924854 11.531079,12.196676 0.0021,0.004 a 16.457558,16.457558 0 0 1 4.18114,7.02851 l 0.0062,0.009 h -0.0031 a 16.457558,16.457558 0 0 1 0.667142,4.62814 16.457558,16.457558 0 0 1 -16.457393,16.45739 16.457558,16.457558 0 0 1 -16.457393,-16.45739 16.457558,16.457558 0 0 1 0.664559,-4.62814 h -5.17e-4 l 10e-4,-0.002 a 16.457558,16.457558 0 0 1 3.418913,-6.21203 l 0.01447,-0.0263 z" /><path
           style="color:#000000;opacity:1;fill:#ffffff;stroke-linecap:round;stroke-linejoin:round;-inkscape-stroke:none;paint-order:markers fill stroke"
           d="m 31.117187,119.94727 c -1.610182,0 -2.779801,0.71352 -3.609375,1.16601 -0.829572,0.45249 -1.320251,0.67578 -1.849609,0.67578 -0.540151,0 -1.066092,-0.22985 -1.921875,-0.67578 -0.855783,-0.44593 -2.041438,-1.13086 -3.648437,-1.13086 -1.104569,0 -2,0.89543 -2,2 0,1.10457 0.895431,2 2,2 0.415825,0 0.922518,0.22009 1.800781,0.67774 0.878262,0.45764 2.125968,1.1289 3.769531,1.1289 1.654355,0 2.904277,-0.6953 3.763672,-1.16406 0.859395,-0.46876 1.326507,-0.67773 1.695312,-0.67773 0.345822,0 0.406899,0.0801 1.140625,0.59375 0.733728,0.5136 2.074836,1.3164 3.841797,1.3164 1.766962,0 3.10807,-0.8028 3.841797,-1.3164 0.733727,-0.51365 0.794804,-0.59375 1.140625,-0.59375 0.368806,0 0.835918,0.20897 1.695313,0.67773 0.859395,0.46876 2.109316,1.16406 3.763672,1.16406 1.643563,0 2.891269,-0.67126 3.769531,-1.1289 0.878263,-0.45765 1.384956,-0.67774 1.800781,-0.67774 1.104569,0 2,-0.89543 2,-2 0,-1.10457 -0.895431,-2 -2,-2 -1.606999,0 -2.792654,0.68493 -3.648437,1.13086 -0.855784,0.44593 -1.381724,0.67578 -1.921875,0.67578 -0.529358,0 -1.020038,-0.22329 -1.84961,-0.67578 -0.829573,-0.45249 -1.999192,-1.16601 -3.609375,-1.16601 -1.633171,0 -2.802499,0.87464 -3.433594,1.3164 -0.631094,0.44177 -0.790871,0.59375 -1.548828,0.59375 -0.757956,0 -0.917733,-0.15198 -1.548828,-0.59375 -0.631094,-0.44176 -1.800422,-1.3164 -3.433594,-1.3164 z"
           id="path11"
           inkscape:path-effect="#path-effect12"
           inkscape:original-d="m 31.117187,119.94727 c -1.610184,0 -2.779801,0.71352 -3.609375,1.16601 -0.829573,0.45249 -1.320251,0.67578 -1.849609,0.67578 -0.540152,0 -1.066091,-0.22985 -1.921875,-0.67578 -0.855784,-0.44593 -2.041436,-1.13086 -3.648437,-1.13086 a 2,2 0 0 0 -2,2 2,2 0 0 0 2,2 c 0.415826,0 0.922517,0.22009 1.800781,0.67774 0.878263,0.45764 2.125966,1.1289 3.769531,1.1289 1.654357,0 2.904276,-0.6953 3.763672,-1.16406 0.859396,-0.46876 1.326506,-0.67773 1.695312,-0.67773 0.345822,0 0.406898,0.0801 1.140625,0.59375 0.733728,0.5136 2.074834,1.3164 3.841797,1.3164 a 2,2 0 0 0 2,-2 2,2 0 0 0 -2,-2 c -0.757957,0 -0.917733,-0.15198 -1.548828,-0.59375 -0.631095,-0.44176 -1.800421,-1.3164 -3.433594,-1.3164 z" /><path
           style="opacity:1;fill:#ffffff;fill-opacity:1;stroke:none;stroke-width:4;stroke-linecap:round;stroke-linejoin:round;stroke-dasharray:none;stroke-opacity:1;paint-order:markers fill stroke"
           d="m 6.4660123,138.00594 c 8.7821967,3.57078 17.6608997,7.14156 22.9688197,9.45775 5.307923,2.31618 8.010136,5.0184 10.905365,6.27299 2.89523,1.2546 8.20315,2.41269 12.352978,2.12317 -3.570782,2.31618 -4.439351,3.7638 -12.449487,3.7638 -8.010133,0 -20.266605,-8.20315 -24.512941,-11.77393 1.447614,2.50919 5.30792,5.79046 7.431089,7.23807 2.123168,1.44762 7.141565,4.05332 10.71235,4.82538 C 28.27674,160.2992 19.591053,156.82493 14.283132,152.6751 8.9752113,148.52527 6.9485506,142.05926 6.4660123,138.00594 Z"
           id="path12" /><path
           style="opacity:1;fill:#ffffff;fill-opacity:1;stroke:none;stroke-width:4;stroke-linecap:round;stroke-linejoin:round;stroke-dasharray:none;stroke-opacity:1;paint-order:markers fill stroke"
           d="m 39.288619,149.43707 c 5.425572,-3.27405 22.029692,-10.2431 27.034312,-11.45918 -1.403164,8.37222 -4.5369,12.02045 -8.278672,14.17197 -3.741774,2.15152 -15.481588,0.60804 -18.75564,-2.71279 z"
           id="path13" /></g><ellipse
         style="fill:none;fill-opacity:1;stroke:#ffffff;stroke-width:1.82145;stroke-linecap:round;stroke-linejoin:round;stroke-dashoffset:1.88976;stroke-opacity:1;paint-order:markers fill stroke"
         id="path2"
         cx="30.578754"
         cy="177.18863"
         rx="21.581573"
         ry="21.051977" /></g><g
       inkscape:label="Layer 1"
       id="layer1-7"
       transform="matrix(0.19725647,0,0,0.19725647,4.738958,-13.606157)"><path
         id="rect1-2"
         style="fill:#ffffff;fill-opacity:1;stroke:none;stroke-width:1.14455;stroke-linecap:round;stroke-linejoin:round;stroke-dasharray:none;paint-order:markers fill stroke"
         d="m 84.621708,95.575562 c -4.666809,0 -8.423775,3.757482 -8.423775,8.424288 v 10.52959 c 0,4.66681 3.756966,8.42378 8.423775,8.42378 h 23.384622 c 4.66681,0 8.42377,-3.75697 8.42377,-8.42378 v -10.52959 c 0,-4.666806 -3.75696,-8.424288 -8.42377,-8.424288 z m 5.955709,12.137758 h 11.662333 c 0.66488,0 1.19993,0.53557 1.19993,1.20045 v 4.30413 c 0,0.66488 -0.53505,1.19992 -1.19993,1.19992 H 90.577417 c -0.66488,0 -1.199927,-0.53504 -1.199927,-1.19992 v -4.30413 c 0,-0.66488 0.535047,-1.20045 1.199927,-1.20045 z" /><path
         id="rect2-5"
         style="fill:#ffffff;fill-opacity:1;stroke:none;stroke-width:1.14659;stroke-linecap:round;stroke-linejoin:round;stroke-dasharray:none;paint-order:markers fill stroke"
         d="m 144.50746,113.22668 c -4.99964,0 -9.02477,4.02513 -9.02477,9.02477 v 9.1364 c 0,4.99964 4.02513,9.02477 9.02477,9.02477 h 22.61102 c 4.99964,0 9.02477,-4.02513 9.02477,-9.02477 v -9.1364 c 0,-4.99964 -4.02513,-9.02477 -9.02477,-9.02477 z m 5.7397,8.34936 h 11.66234 c 0.66488,0 1.19992,0.53505 1.19992,1.19993 v 4.30413 c 0,0.66488 -0.53504,1.19993 -1.19992,1.19993 h -11.66234 c -0.66488,0 -1.19993,-0.53505 -1.19993,-1.19993 v -4.30413 c 0,-0.66488 0.53505,-1.19993 1.19993,-1.19993 z" /><path
         id="rect3-3"
         style="fill:#ffffff;fill-opacity:1;stroke:none;stroke-width:1.47323;stroke-linecap:round;stroke-linejoin:round;stroke-dasharray:none;paint-order:markers fill stroke"
         d="m 84.633594,103.05831 c -4.666811,0 -8.424292,3.75696 -8.424292,8.42377 v 20.50676 c 0,4.66681 3.757481,8.42378 8.424292,8.42378 H 114.97541 V 127.90951 H 91.434729 c -1.181018,0 -2.131653,-0.95064 -2.131653,-2.13166 v -22.71954 z" /><path
         id="rect4"
         style="fill:#ffffff;stroke-width:1.41755;stroke-linecap:round;stroke-linejoin:round;paint-order:markers fill stroke"
         d="m 138.80083,95.192122 c -0.42553,0 -0.84029,0.03984 -1.24954,0.09715 v 12.885518 h 23.44198 c 1.26327,0 2.28048,1.0167 2.28048,2.27997 v 21.32428 h 3.94292 c 4.92069,0 8.88214,-3.96145 8.88214,-8.88215 v -18.82262 c 0,-4.920693 -3.96145,-8.88215 -8.88214,-8.88215 z" /><rect
         style="opacity:1;fill:#ffffff;fill-opacity:1;stroke:none;stroke-width:1.0259;stroke-linecap:round;stroke-linejoin:round;stroke-dasharray:none;paint-order:markers fill stroke"
         id="rect9"
         width="13.664561"
         height="58.49733"
         x="119.4673"
         y="82.247635"
         ry="0" /><text
         xml:space="preserve"
         style="font-style:normal;font-variant:normal;font-weight:normal;font-stretch:normal;font-size:8.44488px;font-family:Arial;-inkscape-font-specification:'Arial, Normal';font-variant-ligatures:normal;font-variant-caps:normal;font-variant-numeric:normal;font-variant-east-asian:normal;opacity:1;fill:#ffffff;fill-opacity:1;stroke:none;stroke-width:0.427469;stroke-linecap:round;stroke-linejoin:round;stroke-dasharray:none;paint-order:markers fill stroke"
         x="80.456947"
         y="153.40762"
         id="text9"><tspan
           sodipodi:role="line"
           id="tspan9"
           style="font-style:normal;font-variant:normal;font-weight:normal;font-stretch:normal;font-size:8.44488px;font-family:Arial;-inkscape-font-specification:'Arial, Normal';font-variant-ligatures:normal;font-variant-caps:normal;font-variant-numeric:normal;font-variant-east-asian:normal;stroke-width:0.427469"
           x="80.456947"
           y="153.40762">Sustentable Colombia</tspan></text></g><text
       xml:space="preserve"
       transform="matrix(0.26458333,0,0,0.26458333,-11.725782,5.4142573)"
       id="text6"
       style="font-style:normal;font-variant:normal;font-weight:normal;font-stretch:normal;font-size:24px;font-family:Quicksand;-inkscape-font-specification:'Quicksand, @wght=600';font-variant-ligatures:normal;font-variant-caps:normal;font-variant-numeric:normal;font-variant-east-asian:normal;font-variation-settings:'wght' 600;white-space:pre;shape-inside:url(#rect7);fill:#fdfdfd;fill-opacity:1;stroke:none;stroke-width:3.77953;stroke-linecap:round;stroke-linejoin:round;stroke-dashoffset:1.88976;stroke-opacity:1;paint-order:markers fill stroke"><tspan
         x="393.79492"
         y="644.18047"
         id="tspan3">• Reducción de consumo (%)
</tspan><tspan
         x="393.79492"
         y="674.18047"
         id="tspan4">• Consumo de recursos (m³/unidad producida)
</tspan><tspan
         x="393.79492"
         y="704.18047"
         id="tspan5">• Personal capacitado (%)</tspan></text><text
       xml:space="preserve"
       transform="matrix(0.26458333,0,0,0.26458333,-18.102778,-10.280151)"
       id="text7"
       style="font-style:normal;font-variant:normal;font-weight:normal;font-stretch:normal;font-size:48px;font-family:Quicksand;-inkscape-font-specification:'Quicksand, @wght=700';font-variant-ligatures:normal;font-variant-caps:normal;font-variant-numeric:normal;font-variant-east-asian:normal;font-variation-settings:'wght' 700;white-space:pre;shape-inside:url(#rect8);fill:#000000;fill-opacity:1;stroke:none;stroke-width:3.77953;stroke-linecap:round;stroke-linejoin:round;stroke-dashoffset:1.88976;stroke-opacity:1;paint-order:markers fill stroke"><tspan
         x="373.43164"
         y="100.52305"
         id="tspan6">Certificado de gestion</tspan></text><path
       style="font-size:26.6667px;font-family:Quicksand;-inkscape-font-specification:'Quicksand, @wght=700';font-variation-settings:'wght' 700;white-space:pre;fill:#1178df;fill-opacity:1;stroke-width:1;stroke-linecap:round;stroke-linejoin:round;stroke-dashoffset:1.88976;paint-order:markers fill stroke"
       d="m 121.88995,20.328102 q 0.0988,0 0.20461,0.05645 0.11289,0.04939 0.16933,0.134054 l 1.7145,2.638779 -0.35277,-0.0141 1.75683,-2.624667 q 0.13405,-0.1905 0.34572,-0.1905 0.16933,0 0.30339,0.119946 0.13406,0.119944 0.13406,0.310444 v 4.085167 q 0,0.183443 -0.11995,0.310443 -0.11994,0.119946 -0.3175,0.119946 -0.19755,0 -0.32455,-0.119946 -0.11995,-0.127 -0.11995,-0.310443 v -3.323167 l 0.27517,0.0635 -1.43934,2.194277 q -0.0635,0.07761 -0.16227,0.134056 -0.0917,0.05644 -0.1905,0.04939 -0.0917,0.0071 -0.1905,-0.04939 -0.0917,-0.05644 -0.15523,-0.134056 l -1.34761,-2.130777 0.18345,-0.373944 v 3.570111 q 0,0.183443 -0.11289,0.310443 -0.11289,0.119946 -0.29633,0.119946 -0.17639,0 -0.28928,-0.119946 -0.11289,-0.127 -0.11289,-0.310443 v -4.085167 q 0,-0.17639 0.127,-0.30339 0.13405,-0.127 0.3175,-0.127 z m 8.92528,3.062112 q 0,0.578554 -0.26106,1.023054 -0.254,0.437446 -0.69144,0.68439 -0.43039,0.246944 -0.96661,0.246944 -0.53622,0 -0.97367,-0.246944 -0.43039,-0.246944 -0.69144,-0.68439 -0.254,-0.4445 -0.254,-1.023054 0,-0.578556 0.254,-1.016 0.26105,-0.4445 0.69144,-0.691446 0.43745,-0.254 0.97367,-0.254 0.53622,0 0.96661,0.254 0.43744,0.246946 0.69144,0.691446 0.26106,0.437444 0.26106,1.016 z m -0.84667,0 q 0,-0.359833 -0.14816,-0.620889 -0.14112,-0.268111 -0.38806,-0.416277 -0.23989,-0.148167 -0.53622,-0.148167 -0.29634,0 -0.54328,0.148167 -0.23989,0.148166 -0.38806,0.416277 -0.14111,0.261056 -0.14111,0.620889 0,0.352777 0.14111,0.620888 0.14817,0.261056 0.38806,0.409223 0.24694,0.148166 0.54328,0.148166 0.29633,0 0.53622,-0.148166 0.24694,-0.148167 0.38806,-0.409223 0.14816,-0.268111 0.14816,-0.620888 z m 4.67784,-3.337279 q 0.18345,0 0.30339,0.119946 0.11994,0.119944 0.11994,0.310444 v 4.360333 q 0,0.183444 -0.11994,0.310444 -0.11994,0.119946 -0.30339,0.119946 -0.18344,0 -0.30339,-0.119946 -0.11994,-0.127 -0.11994,-0.310444 v -0.345723 l 0.15522,0.0635 q 0,0.09172 -0.0988,0.225779 -0.0988,0.127 -0.26811,0.254 -0.16933,0.127 -0.40217,0.218721 -0.22577,0.08467 -0.49388,0.08467 -0.48684,0 -0.88195,-0.246944 -0.39511,-0.254 -0.62794,-0.691444 -0.22578,-0.4445 -0.22578,-1.016 0,-0.578556 0.22578,-1.016 0.23283,-0.4445 0.62089,-0.691446 0.38805,-0.254 0.86077,-0.254 0.30339,0 0.55739,0.09172 0.254,0.09172 0.43745,0.232834 0.1905,0.14111 0.28927,0.289277 0.10584,0.141112 0.10584,0.239889 l -0.254,0.09172 v -1.890889 q 0,-0.183444 0.11994,-0.30339 0.11995,-0.127 0.30339,-0.127 z m -1.42522,4.515556 q 0.31044,0 0.54328,-0.155223 0.23283,-0.15522 0.35983,-0.423333 0.13406,-0.26811 0.13406,-0.599721 0,-0.338666 -0.13406,-0.606779 -0.127,-0.26811 -0.35983,-0.423333 -0.23284,-0.155221 -0.54328,-0.155221 -0.30339,0 -0.53622,0.155221 -0.23284,0.155223 -0.36689,0.423333 -0.127,0.268113 -0.127,0.606779 0,0.331611 0.127,0.599721 0.13405,0.268113 0.36689,0.423333 0.23283,0.155223 0.53622,0.155223 z m 5.67973,-3.069166 q 0.18344,0 0.30338,0.127 0.11995,0.119943 0.11995,0.303389 v 1.792111 q 0,0.747889 -0.41628,1.185333 -0.41628,0.437444 -1.19944,0.437444 -0.78317,0 -1.19945,-0.437444 -0.40922,-0.437444 -0.40922,-1.185333 v -1.792111 q 0,-0.183446 0.11994,-0.303389 0.11995,-0.127 0.30339,-0.127 0.18345,0 0.30339,0.127 0.11995,0.119943 0.11995,0.303389 v 1.792111 q 0,0.430389 0.1905,0.642056 0.1905,0.20461 0.5715,0.20461 0.38805,0 0.57855,-0.20461 0.1905,-0.211667 0.1905,-0.642056 v -1.792111 q 0,-0.183446 0.11995,-0.303389 0.11994,-0.127 0.30339,-0.127 z m 2.25777,3.344333 q 0,0.183444 -0.127,0.310444 -0.11994,0.119946 -0.30338,0.119946 -0.17639,0 -0.29634,-0.119946 -0.11994,-0.127 -0.11994,-0.310444 v -4.360333 q 0,-0.183444 0.11994,-0.30339 0.127,-0.127 0.31045,-0.127 0.18344,0 0.29633,0.127 0.11995,0.119946 0.11995,0.30339 z m 4.57906,-1.453444 q 0,0.578554 -0.26106,1.023054 -0.25399,0.437446 -0.69144,0.68439 -0.43038,0.246944 -0.96661,0.246944 -0.53621,0 -0.97367,-0.246944 -0.43038,-0.246944 -0.69144,-0.68439 -0.254,-0.4445 -0.254,-1.023054 0,-0.578556 0.254,-1.016 0.26106,-0.4445 0.69144,-0.691446 0.43746,-0.254 0.97367,-0.254 0.53622,0 0.96661,0.254 0.43745,0.246946 0.69144,0.691446 0.26106,0.437444 0.26106,1.016 z m -0.84667,0 q 0,-0.359833 -0.14816,-0.620889 -0.1411,-0.268111 -0.38805,-0.416277 -0.2399,-0.148167 -0.53622,-0.148167 -0.29633,0 -0.54328,0.148167 -0.23989,0.148166 -0.38805,0.416277 -0.14112,0.261056 -0.14112,0.620889 0,0.352777 0.14112,0.620888 0.14816,0.261056 0.38805,0.409223 0.24695,0.148166 0.54328,0.148166 0.29633,0 0.53622,-0.148166 0.24695,-0.148167 0.38805,-0.409223 0.14816,-0.268111 0.14816,-0.620888 z m 6.6534,-3.337279 q 0.18345,0 0.3034,0.119946 0.11994,0.119944 0.11994,0.310444 v 4.360333 q 0,0.183444 -0.11994,0.310444 -0.11995,0.119946 -0.3034,0.119946 -0.18343,0 -0.30339,-0.119946 -0.11994,-0.127 -0.11994,-0.310444 v -0.345723 l 0.15522,0.0635 q 0,0.09172 -0.0988,0.225779 -0.0988,0.127 -0.26811,0.254 -0.16933,0.127 -0.40216,0.218721 -0.22578,0.08467 -0.49389,0.08467 -0.48684,0 -0.88195,-0.246944 -0.39511,-0.254 -0.62794,-0.691444 -0.22578,-0.4445 -0.22578,-1.016 0,-0.578556 0.22578,-1.016 0.23283,-0.4445 0.62089,-0.691446 0.38805,-0.254 0.86077,-0.254 0.30339,0 0.55739,0.09172 0.254,0.09172 0.43745,0.232834 0.1905,0.14111 0.28928,0.289277 0.10583,0.141112 0.10583,0.239889 l -0.254,0.09172 v -1.890889 q 0,-0.183444 0.11995,-0.30339 0.11994,-0.127 0.30339,-0.127 z m -1.42522,4.515556 q 0.31044,0 0.54329,-0.155223 0.23283,-0.15522 0.35982,-0.423333 0.13407,-0.26811 0.13407,-0.599721 0,-0.338666 -0.13407,-0.606779 -0.127,-0.26811 -0.35982,-0.423333 -0.23285,-0.155221 -0.54329,-0.155221 -0.30339,0 -0.53621,0.155221 -0.23284,0.155223 -0.3669,0.423333 -0.127,0.268113 -0.127,0.606779 0,0.331611 0.127,0.599721 0.13406,0.268113 0.3669,0.423333 0.23283,0.155223 0.53621,0.155223 z m 4.54378,0.776111 q -0.59971,0 -1.04422,-0.246944 -0.43745,-0.254 -0.67733,-0.68439 -0.23283,-0.430387 -0.23283,-0.973666 0,-0.635 0.25399,-1.0795 0.26106,-0.451554 0.67734,-0.691444 0.41628,-0.23989 0.88194,-0.23989 0.35983,0 0.67734,0.148167 0.32456,0.148167 0.57149,0.409223 0.24695,0.254 0.38806,0.592667 0.14816,0.338666 0.14816,0.719666 -0.007,0.169334 -0.13405,0.275167 -0.127,0.105833 -0.29633,0.105833 h -2.69523 l -0.21166,-0.705556 h 2.58939 l -0.15523,0.141113 v -0.1905 q -0.0141,-0.204613 -0.14816,-0.36689 -0.127,-0.162277 -0.32455,-0.254 -0.1905,-0.09878 -0.40923,-0.09878 -0.21167,0 -0.3951,0.05644 -0.18345,0.05644 -0.3175,0.1905 -0.13406,0.134056 -0.21167,0.359833 -0.0776,0.225777 -0.0776,0.5715 0,0.381 0.15522,0.64911 0.16228,0.261057 0.40922,0.402167 0.254,0.134056 0.53623,0.134056 0.26105,0 0.41627,-0.04233 0.15523,-0.04233 0.24695,-0.09878 0.0988,-0.0635 0.17639,-0.105833 0.127,-0.0635 0.23989,-0.0635 0.15522,0 0.254,0.105833 0.10583,0.105833 0.10583,0.246944 0,0.1905 -0.19756,0.345723 -0.18344,0.15522 -0.51505,0.275166 -0.33162,0.112888 -0.6844,0.112888 z m 7.45067,-3.915834 q 0.18345,0 0.3034,0.119946 0.11994,0.119944 0.11994,0.310444 v 2.9845 q 0,0.183444 -0.11994,0.310444 -0.11995,0.119946 -0.3034,0.119946 -0.18343,0 -0.30339,-0.119946 -0.11994,-0.127 -0.11994,-0.310444 v -0.345723 l 0.15522,0.0635 q 0,0.09172 -0.0988,0.225779 -0.0988,0.127 -0.26811,0.254 -0.16933,0.127 -0.40216,0.218721 -0.22578,0.08467 -0.49389,0.08467 -0.48684,0 -0.88195,-0.246944 -0.39511,-0.254 -0.62794,-0.691444 -0.22578,-0.4445 -0.22578,-1.016 0,-0.578556 0.22578,-1.016 0.23283,-0.4445 0.62089,-0.691446 0.38805,-0.254 0.86078,-0.254 0.30338,0 0.55738,0.09172 0.254,0.09172 0.43746,0.232834 0.19049,0.14111 0.28927,0.289277 0.10583,0.141112 0.10583,0.239889 l -0.254,0.09172 v -0.515056 q 0,-0.183444 0.11995,-0.30339 0.11995,-0.127 0.30339,-0.127 z m -1.42521,3.139723 q 0.31045,0 0.54328,-0.155223 0.23283,-0.15522 0.35982,-0.423333 0.13407,-0.26811 0.13407,-0.599721 0,-0.338666 -0.13407,-0.606779 -0.127,-0.26811 -0.35982,-0.423333 -0.23283,-0.155221 -0.54328,-0.155221 -0.3034,0 -0.53622,0.155221 -0.23283,0.155223 -0.36689,0.423333 -0.12701,0.268113 -0.12701,0.606779 0,0.331611 0.12701,0.599721 0.13406,0.268113 0.36689,0.423333 0.23283,0.155223 0.53622,0.155223 z m 4.33211,-3.139723 q 0.29633,0 0.54328,0.09172 0.24695,0.09172 0.42333,0.232834 0.18344,0.14111 0.28223,0.289277 0.10583,0.141112 0.10583,0.239889 l -0.18344,0.09172 v -0.515056 q 0,-0.183444 0.11994,-0.30339 0.11994,-0.127 0.30339,-0.127 0.18344,0 0.30339,0.119946 0.11994,0.119944 0.11994,0.310444 v 3.139723 q 0,0.613833 -0.26811,0.980721 -0.26105,0.373946 -0.69144,0.536223 -0.43039,0.169333 -0.92428,0.169333 -0.14111,0 -0.36689,-0.03528 -0.22578,-0.03528 -0.43039,-0.08467 -0.20461,-0.04939 -0.31044,-0.09172 -0.21167,-0.09172 -0.29634,-0.232833 -0.0776,-0.134056 -0.0282,-0.289277 0.0635,-0.204613 0.20461,-0.282223 0.14111,-0.07056 0.29634,-0.0141 0.0705,0.02117 0.23283,0.08467 0.16228,0.0635 0.35278,0.112887 0.19755,0.05645 0.34572,0.05645 0.52917,0 0.78317,-0.211667 0.254,-0.211667 0.254,-0.585613 v -0.613833 l 0.0847,0.0635 q 0,0.09172 -0.0988,0.225779 -0.0917,0.127 -0.26105,0.254 -0.16228,0.127 -0.38806,0.218721 -0.22577,0.08467 -0.47977,0.08467 -0.50095,0 -0.90312,-0.246943 -0.40216,-0.254 -0.635,-0.691444 -0.23283,-0.4445 -0.23283,-1.016 0,-0.578556 0.23283,-1.016 0.23284,-0.4445 0.62795,-0.691446 0.39511,-0.254 0.88194,-0.254 z m 0.13406,0.776113 q -0.3175,0 -0.55739,0.155221 -0.23989,0.155223 -0.37394,0.423333 -0.13407,0.268113 -0.13407,0.606779 0,0.331611 0.13407,0.599721 0.13405,0.268113 0.37394,0.423333 0.23989,0.155223 0.55739,0.155223 0.32454,0 0.56443,-0.155223 0.2399,-0.15522 0.37396,-0.423333 0.13405,-0.26811 0.13405,-0.599721 0,-0.338666 -0.13405,-0.606779 -0.13406,-0.26811 -0.37396,-0.423333 -0.23989,-0.155221 -0.56443,-0.155221 z m 5.54567,-0.705556 q 0.18345,0 0.30339,0.127 0.11995,0.119943 0.11995,0.303389 v 1.792111 q 0,0.747889 -0.41628,1.185333 -0.41628,0.437444 -1.19946,0.437444 -0.78316,0 -1.19944,-0.437444 -0.40922,-0.437444 -0.40922,-1.185333 v -1.792111 q 0,-0.183446 0.11994,-0.303389 0.11995,-0.127 0.30339,-0.127 0.18344,0 0.3034,0.127 0.11994,0.119943 0.11994,0.303389 v 1.792111 q 0,0.430389 0.1905,0.642056 0.19049,0.20461 0.57149,0.20461 0.38806,0 0.57857,-0.20461 0.19049,-0.211667 0.19049,-0.642056 v -1.792111 q 0,-0.183446 0.11995,-0.303389 0.11994,-0.127 0.30339,-0.127 z m 4.43089,-0.07056 q 0.18345,0 0.30339,0.119946 0.11994,0.119944 0.11994,0.310444 v 2.9845 q 0,0.183444 -0.11994,0.310444 -0.11994,0.119946 -0.30339,0.119946 -0.18344,0 -0.30339,-0.119946 -0.11995,-0.127 -0.11995,-0.310444 v -0.345723 l 0.15523,0.0635 q 0,0.09172 -0.0988,0.225779 -0.0988,0.127 -0.26811,0.254 -0.16933,0.127 -0.40217,0.218721 -0.22577,0.08467 -0.49388,0.08467 -0.48684,0 -0.88195,-0.246944 -0.3951,-0.254 -0.62793,-0.691444 -0.22578,-0.4445 -0.22578,-1.016 0,-0.578556 0.22578,-1.016 0.23283,-0.4445 0.62089,-0.691446 0.38804,-0.254 0.86077,-0.254 0.30339,0 0.55739,0.09172 0.25399,0.09172 0.43745,0.232834 0.1905,0.14111 0.28927,0.289277 0.10584,0.141112 0.10584,0.239889 l -0.254,0.09172 v -0.515056 q 0,-0.183444 0.11994,-0.30339 0.11995,-0.127 0.30339,-0.127 z m -1.42522,3.139723 q 0.31044,0 0.54328,-0.155223 0.23283,-0.15522 0.35983,-0.423333 0.13406,-0.26811 0.13406,-0.599721 0,-0.338666 -0.13406,-0.606779 -0.127,-0.26811 -0.35983,-0.423333 -0.23284,-0.155221 -0.54328,-0.155221 -0.30339,0 -0.53622,0.155221 -0.23284,0.155223 -0.36689,0.423333 -0.127,0.268113 -0.127,0.606779 0,0.331611 0.127,0.599721 0.13405,0.268113 0.36689,0.423333 0.23283,0.155223 0.53622,0.155223 z"
       id="text8"
       aria-label="Modulo de agua" /></g></svg>
