<?xml version="1.0" encoding="UTF-8" standalone="no"?>
<!-- Created with Inkscape (http://www.inkscape.org/) -->

<svg
   width="169.67723mm"
   height="77.694901mm"
   viewBox="0 0 169.67723 77.694901"
   version="1.1"
   id="svg1"
   xml:space="preserve"
   sodipodi:docname="logotipo_ela.svg"
   inkscape:export-filename="logo_ela.svg"
   inkscape:export-xdpi="96"
   inkscape:export-ydpi="96"
   xmlns:inkscape="http://www.inkscape.org/namespaces/inkscape"
   xmlns:sodipodi="http://sodipodi.sourceforge.net/DTD/sodipodi-0.dtd"
   xmlns="http://www.w3.org/2000/svg"
   xmlns:svg="http://www.w3.org/2000/svg"><sodipodi:namedview
     id="namedview1"
     pagecolor="#505050"
     bordercolor="#eeeeee"
     borderopacity="1"
     inkscape:showpageshadow="0"
     inkscape:pageopacity="0"
     inkscape:pagecheckerboard="0"
     inkscape:deskcolor="#505050"
     inkscape:document-units="mm" /><defs
     id="defs1"><inkscape:path-effect
       effect="mirror_symmetry"
       start_point="36.1,119.94727"
       end_point="36.1,125.86"
       center_point="36.1,122.90364"
       id="path-effect12"
       is_visible="true"
       lpeversion="1.2"
       lpesatellites=""
       mode="free"
       discard_orig_path="false"
       fuse_paths="true"
       oposite_fuse="false"
       split_items="false"
       split_open="false"
       link_styles="false" /></defs><g
     inkscape:label="Layer 1"
     inkscape:groupmode="layer"
     id="layer1"
     transform="translate(-6.4660123,-82.247635)"><path
       id="rect1"
       style="fill:#ffffff;fill-opacity:1;stroke:none;stroke-width:1.14455;stroke-linecap:round;stroke-linejoin:round;stroke-dasharray:none;paint-order:markers fill stroke"
       d="m 84.621708,95.575562 c -4.666809,0 -8.423775,3.757482 -8.423775,8.424288 v 10.52959 c 0,4.66681 3.756966,8.42378 8.423775,8.42378 h 23.384622 c 4.66681,0 8.42377,-3.75697 8.42377,-8.42378 v -10.52959 c 0,-4.666806 -3.75696,-8.424288 -8.42377,-8.424288 z m 5.955709,12.137758 h 11.662333 c 0.66488,0 1.19993,0.53557 1.19993,1.20045 v 4.30413 c 0,0.66488 -0.53505,1.19992 -1.19993,1.19992 H 90.577417 c -0.66488,0 -1.199927,-0.53504 -1.199927,-1.19992 v -4.30413 c 0,-0.66488 0.535047,-1.20045 1.199927,-1.20045 z" /><path
       id="rect2"
       style="fill:#ffffff;fill-opacity:1;stroke:none;stroke-width:1.14659;stroke-linecap:round;stroke-linejoin:round;stroke-dasharray:none;paint-order:markers fill stroke"
       d="m 144.50746,113.22668 c -4.99964,0 -9.02477,4.02513 -9.02477,9.02477 v 9.1364 c 0,4.99964 4.02513,9.02477 9.02477,9.02477 h 22.61102 c 4.99964,0 9.02477,-4.02513 9.02477,-9.02477 v -9.1364 c 0,-4.99964 -4.02513,-9.02477 -9.02477,-9.02477 z m 5.7397,8.34936 h 11.66234 c 0.66488,0 1.19992,0.53505 1.19992,1.19993 v 4.30413 c 0,0.66488 -0.53504,1.19993 -1.19992,1.19993 h -11.66234 c -0.66488,0 -1.19993,-0.53505 -1.19993,-1.19993 v -4.30413 c 0,-0.66488 0.53505,-1.19993 1.19993,-1.19993 z" /><path
       id="rect3"
       style="fill:#ffffff;fill-opacity:1;stroke:none;stroke-width:1.47323;stroke-linecap:round;stroke-linejoin:round;stroke-dasharray:none;paint-order:markers fill stroke"
       d="m 84.633594,103.05831 c -4.666811,0 -8.424292,3.75696 -8.424292,8.42377 v 20.50676 c 0,4.66681 3.757481,8.42378 8.424292,8.42378 H 114.97541 V 127.90951 H 91.434729 c -1.181018,0 -2.131653,-0.95064 -2.131653,-2.13166 v -22.71954 z" /><path
       id="rect4"
       style="fill:#ffffff;stroke-width:1.41755;stroke-linecap:round;stroke-linejoin:round;paint-order:markers fill stroke"
       d="m 138.80083,95.192122 c -0.42553,0 -0.84029,0.03984 -1.24954,0.09715 v 12.885518 h 23.44198 c 1.26327,0 2.28048,1.0167 2.28048,2.27997 v 21.32428 h 3.94292 c 4.92069,0 8.88214,-3.96145 8.88214,-8.88215 v -18.82262 c 0,-4.920693 -3.96145,-8.88215 -8.88214,-8.88215 z" /><rect
       style="opacity:1;fill:#ffffff;fill-opacity:1;stroke:none;stroke-width:1.0259;stroke-linecap:round;stroke-linejoin:round;stroke-dasharray:none;paint-order:markers fill stroke"
       id="rect9"
       width="13.664561"
       height="58.49733"
       x="119.4673"
       y="82.247635"
       ry="0" /><text
       xml:space="preserve"
       style="font-style:normal;font-variant:normal;font-weight:normal;font-stretch:normal;font-size:8.44488px;font-family:Arial;-inkscape-font-specification:'Arial, Normal';font-variant-ligatures:normal;font-variant-caps:normal;font-variant-numeric:normal;font-variant-east-asian:normal;opacity:1;fill:#ffffff;fill-opacity:1;stroke:none;stroke-width:0.427469;stroke-linecap:round;stroke-linejoin:round;stroke-dasharray:none;paint-order:markers fill stroke"
       x="80.456947"
       y="153.40762"
       id="text9"><tspan
         sodipodi:role="line"
         id="tspan9"
         style="font-style:normal;font-variant:normal;font-weight:normal;font-stretch:normal;font-size:8.44488px;font-family:Arial;-inkscape-font-specification:'Arial, Normal';font-variant-ligatures:normal;font-variant-caps:normal;font-variant-numeric:normal;font-variant-east-asian:normal;stroke-width:0.427469"
         x="80.456947"
         y="153.40762">Sustentable Colombia</tspan></text><path
       id="path9"
       style="opacity:1;fill:#ffffff;fill-opacity:1;stroke:none;stroke-width:1.1836;stroke-linecap:round;stroke-linejoin:round;stroke-dasharray:none;paint-order:markers fill stroke"
       d="m 36.622054,83.87395 -18.71307,19.56625 -0.0217,0.0393 a 24.773436,24.773436 0 0 0 -5.146456,9.35085 l -0.0015,0.003 h 10e-4 a 24.773436,24.773436 0 0 0 -1.000973,6.9665 24.773436,24.773436 0 0 0 24.773682,24.77316 24.773436,24.773436 0 0 0 24.773165,-24.77316 24.773436,24.773436 0 0 0 -1.00459,-6.9665 h 0.0052 l -0.0093,-0.0155 a 24.773436,24.773436 0 0 0 -6.29419,-10.57971 l -0.0031,-0.006 z m -0.168465,11.924854 11.531079,12.196676 0.0021,0.004 a 16.457558,16.457558 0 0 1 4.18114,7.02851 l 0.0062,0.009 h -0.0031 a 16.457558,16.457558 0 0 1 0.667142,4.62814 16.457558,16.457558 0 0 1 -16.457393,16.45739 16.457558,16.457558 0 0 1 -16.457393,-16.45739 16.457558,16.457558 0 0 1 0.664559,-4.62814 h -5.17e-4 l 10e-4,-0.002 a 16.457558,16.457558 0 0 1 3.418913,-6.21203 l 0.01447,-0.0263 z" /><path
       style="color:#000000;opacity:1;fill:#ffffff;stroke-linecap:round;stroke-linejoin:round;-inkscape-stroke:none;paint-order:markers fill stroke"
       d="m 31.117187,119.94727 c -1.610182,0 -2.779801,0.71352 -3.609375,1.16601 -0.829572,0.45249 -1.320251,0.67578 -1.849609,0.67578 -0.540151,0 -1.066092,-0.22985 -1.921875,-0.67578 -0.855783,-0.44593 -2.041438,-1.13086 -3.648437,-1.13086 -1.104569,0 -2,0.89543 -2,2 0,1.10457 0.895431,2 2,2 0.415825,0 0.922518,0.22009 1.800781,0.67774 0.878262,0.45764 2.125968,1.1289 3.769531,1.1289 1.654355,0 2.904277,-0.6953 3.763672,-1.16406 0.859395,-0.46876 1.326507,-0.67773 1.695312,-0.67773 0.345822,0 0.406899,0.0801 1.140625,0.59375 0.733728,0.5136 2.074836,1.3164 3.841797,1.3164 1.766962,0 3.10807,-0.8028 3.841797,-1.3164 0.733727,-0.51365 0.794804,-0.59375 1.140625,-0.59375 0.368806,0 0.835918,0.20897 1.695313,0.67773 0.859395,0.46876 2.109316,1.16406 3.763672,1.16406 1.643563,0 2.891269,-0.67126 3.769531,-1.1289 0.878263,-0.45765 1.384956,-0.67774 1.800781,-0.67774 1.104569,0 2,-0.89543 2,-2 0,-1.10457 -0.895431,-2 -2,-2 -1.606999,0 -2.792654,0.68493 -3.648437,1.13086 -0.855784,0.44593 -1.381724,0.67578 -1.921875,0.67578 -0.529358,0 -1.020038,-0.22329 -1.84961,-0.67578 -0.829573,-0.45249 -1.999192,-1.16601 -3.609375,-1.16601 -1.633171,0 -2.802499,0.87464 -3.433594,1.3164 -0.631094,0.44177 -0.790871,0.59375 -1.548828,0.59375 -0.757956,0 -0.917733,-0.15198 -1.548828,-0.59375 -0.631094,-0.44176 -1.800422,-1.3164 -3.433594,-1.3164 z"
       id="path11"
       inkscape:path-effect="#path-effect12"
       inkscape:original-d="m 31.117187,119.94727 c -1.610184,0 -2.779801,0.71352 -3.609375,1.16601 -0.829573,0.45249 -1.320251,0.67578 -1.849609,0.67578 -0.540152,0 -1.066091,-0.22985 -1.921875,-0.67578 -0.855784,-0.44593 -2.041436,-1.13086 -3.648437,-1.13086 a 2,2 0 0 0 -2,2 2,2 0 0 0 2,2 c 0.415826,0 0.922517,0.22009 1.800781,0.67774 0.878263,0.45764 2.125966,1.1289 3.769531,1.1289 1.654357,0 2.904276,-0.6953 3.763672,-1.16406 0.859396,-0.46876 1.326506,-0.67773 1.695312,-0.67773 0.345822,0 0.406898,0.0801 1.140625,0.59375 0.733728,0.5136 2.074834,1.3164 3.841797,1.3164 a 2,2 0 0 0 2,-2 2,2 0 0 0 -2,-2 c -0.757957,0 -0.917733,-0.15198 -1.548828,-0.59375 -0.631095,-0.44176 -1.800421,-1.3164 -3.433594,-1.3164 z" /><path
       style="opacity:1;fill:#ffffff;fill-opacity:1;stroke:none;stroke-width:4;stroke-linecap:round;stroke-linejoin:round;stroke-dasharray:none;stroke-opacity:1;paint-order:markers fill stroke"
       d="m 6.4660123,138.00594 c 8.7821967,3.57078 17.6608997,7.14156 22.9688197,9.45775 5.307923,2.31618 8.010136,5.0184 10.905365,6.27299 2.89523,1.2546 8.20315,2.41269 12.352978,2.12317 -3.570782,2.31618 -4.439351,3.7638 -12.449487,3.7638 -8.010133,0 -20.266605,-8.20315 -24.512941,-11.77393 1.447614,2.50919 5.30792,5.79046 7.431089,7.23807 2.123168,1.44762 7.141565,4.05332 10.71235,4.82538 C 28.27674,160.2992 19.591053,156.82493 14.283132,152.6751 8.9752113,148.52527 6.9485506,142.05926 6.4660123,138.00594 Z"
       id="path12" /><path
       style="opacity:1;fill:#ffffff;fill-opacity:1;stroke:none;stroke-width:4;stroke-linecap:round;stroke-linejoin:round;stroke-dasharray:none;stroke-opacity:1;paint-order:markers fill stroke"
       d="m 39.288619,149.43707 c 5.425572,-3.27405 22.029692,-10.2431 27.034312,-11.45918 -1.403164,8.37222 -4.5369,12.02045 -8.278672,14.17197 -3.741774,2.15152 -15.481588,0.60804 -18.75564,-2.71279 z"
       id="path13" /></g></svg>
